<svg width="60" height="60" viewBox="0 0 60 60" fill="none" xmlns="http://www.w3.org/2000/svg">
<path d="M55.7234 39.7185C55.692 39.4006 55.5897 39.0938 55.4241 38.8205C55.6163 38.4966 55.7196 38.1278 55.7234 37.7513V4.87534C55.7234 3.69434 54.7662 2.73706 53.5852 2.73706H6.40413C5.22314 2.73706 4.26586 3.69434 4.26586 4.87534V37.7513C4.26973 38.1278 4.37304 38.4966 4.56522 38.8205C4.40338 39.0946 4.30475 39.4014 4.27655 39.7185L0 54.8361V55.1248C0 56.3058 0.957279 57.2631 2.13828 57.2631H57.8617C59.0427 57.2631 60 56.3058 60 55.1248L55.7234 39.7185ZM6.40413 4.87534H53.5852V37.7513H6.40413V4.87534ZM25.5096 55.1248L26.087 50.9445H33.9879L34.469 55.1248H25.5096ZM36.6287 55.1248L36.1155 50.72C36.0156 49.6147 35.0868 48.7696 33.9772 48.7741H26.0976C24.9918 48.7692 24.0644 49.6083 23.9594 50.7093L23.3607 55.1034H2.17035L6.36137 40.1355V39.8468H53.5852L57.8617 55.082L36.6287 55.1248Z" fill="#5AB5BA"/>
<path d="M49.9715 6.94934H10.0179C9.42744 6.94934 8.94873 7.42805 8.94873 8.01848V34.6079C8.94873 35.1984 9.42744 35.6771 10.0179 35.6771H49.9715C50.562 35.6771 51.0407 35.1984 51.0407 34.6079V8.01848C51.0407 7.42805 50.562 6.94934 49.9715 6.94934ZM11.087 33.5495V9.08762H48.9024V33.5495H11.087Z" fill="#5AB5BA"/>
<path d="M50.9766 41.0442H9.01299C8.42255 41.0442 7.94385 41.5229 7.94385 42.1133C7.94385 42.7038 8.42255 43.1825 9.01299 43.1825H50.9766C51.5671 43.1825 52.0458 42.7038 52.0458 42.1133C52.0458 41.5229 51.5671 41.0442 50.9766 41.0442Z" fill="#5AB5BA"/>
<path d="M52.8262 45.588H7.16338C6.57294 45.588 6.09424 46.0667 6.09424 46.6571C6.09424 47.2476 6.57294 47.7263 7.16338 47.7263H52.8262C53.4167 47.7263 53.8954 47.2476 53.8954 46.6571C53.8954 46.0667 53.4167 45.588 52.8262 45.588Z" fill="#5AB5BA"/>
</svg>
