<svg width="22" height="22" viewBox="0 0 22 22" fill="none" xmlns="http://www.w3.org/2000/svg">
<path d="M11 0C4.92488 0 0 4.92488 0 11C0 17.0751 4.92488 22 11 22C17.0751 22 22 17.0751 22 11C22 4.92488 17.0751 0 11 0ZM16.2343 8.35785C16.2394 8.47169 16.2412 8.58686 16.2412 8.70197C16.2412 12.2146 13.5258 16.2645 8.55861 16.2645C7.09345 16.2665 5.65782 15.8525 4.41873 15.0706C4.63262 15.0953 4.84776 15.1077 5.06307 15.1077C6.27631 15.1105 7.45614 14.7103 8.41725 13.9699C7.85724 13.9619 7.31358 13.7799 6.8616 13.4492C6.40962 13.1184 6.07171 12.6553 5.89467 12.1239C6.29966 12.2003 6.71662 12.1847 7.1148 12.0784C5.87922 11.8337 4.94826 10.7592 4.94826 9.47167V9.43831C5.32418 9.64373 5.74323 9.75767 6.17141 9.77087C5.80325 9.53087 5.50063 9.20301 5.29083 8.81685C5.08104 8.43068 4.97067 7.99836 4.9697 7.55889C4.96924 7.08859 5.09564 6.62687 5.33556 6.22237C6.01944 7.04653 6.86756 7.71914 7.82583 8.1973C8.78411 8.67546 9.83152 8.94868 10.9013 8.99953C10.855 8.80099 10.8317 8.59778 10.8318 8.39392C10.8318 6.9258 12.0409 5.73571 13.5318 5.73571C13.9001 5.73465 14.2647 5.80854 14.6035 5.95288C14.9423 6.09723 15.2482 6.30901 15.5026 6.57534C16.1067 6.45838 16.6866 6.24011 17.218 5.92977C17.0145 6.54826 16.5922 7.07118 16.0304 7.40034C16.5652 7.33831 17.0878 7.1973 17.5813 6.98193C17.2178 7.51712 16.7617 7.98308 16.2343 8.35785Z" fill="#E5E5E5"/>
</svg>
