<svg width="70" height="70" viewBox="0 0 70 70" fill="none" xmlns="http://www.w3.org/2000/svg">
<path d="M64.5312 16.406H62.3437V15.3122H63.4375C64.3077 15.3122 65.1423 14.9665 65.7577 14.3512C66.373 13.7358 66.7187 12.9012 66.7187 12.031C66.7187 11.1607 66.373 10.3261 65.7577 9.71077C65.1423 9.09542 64.3077 8.74972 63.4375 8.74972H62.3437V3.28097C62.3453 3.10972 62.3054 2.94065 62.2273 2.78825C62.1492 2.63585 62.0352 2.50467 61.8953 2.40597C61.7598 2.30339 61.6021 2.2341 61.4349 2.2037C61.2677 2.1733 61.0957 2.18264 60.9328 2.23097L46.8672 6.56222H39.375C39.0849 6.56222 38.8067 6.67745 38.6016 6.88257C38.3965 7.08769 38.2812 7.36588 38.2812 7.65597V8.74972H36.0937C35.8037 8.74972 35.5255 8.86495 35.3203 9.07007C35.1152 9.27519 35 9.55339 35 9.84347V14.2185C35 14.5085 35.1152 14.7867 35.3203 14.9919C35.5255 15.197 35.8037 15.3122 36.0937 15.3122H38.2812V16.406H31.7187V6.56222C31.7187 6.27213 31.6035 5.99394 31.3984 5.78882C31.1933 5.5837 30.9151 5.46847 30.625 5.46847H8.75C8.45992 5.46847 8.18172 5.5837 7.9766 5.78882C7.77148 5.99394 7.65625 6.27213 7.65625 6.56222V16.406H5.46875C4.59931 16.4086 3.76622 16.7551 3.15142 17.3699C2.53663 17.9847 2.1901 18.8178 2.1875 19.6872V54.6872C2.1901 55.5567 2.53663 56.3898 3.15142 57.0045C3.76622 57.6193 4.59931 57.9659 5.46875 57.9685H30.625V61.2497H24.0625C23.7724 61.2497 23.4942 61.365 23.2891 61.5701C23.084 61.7752 22.9687 62.0534 22.9687 62.3435V66.7185C22.9687 67.0086 23.084 67.2868 23.2891 67.4919C23.4942 67.697 23.7724 67.8122 24.0625 67.8122H45.9375C46.2276 67.8122 46.5058 67.697 46.7109 67.4919C46.916 67.2868 47.0312 67.0086 47.0312 66.7185V62.3435C47.0312 62.0534 46.916 61.7752 46.7109 61.5701C46.5058 61.365 46.2276 61.2497 45.9375 61.2497H39.375V57.9685H64.5312C65.4007 57.9659 66.2338 57.6193 66.8486 57.0045C67.4634 56.3898 67.8099 55.5567 67.8125 54.6872V19.6872C67.8099 18.8178 67.4634 17.9847 66.8486 17.3699C66.2338 16.7551 65.4007 16.4086 64.5312 16.406ZM62.3437 10.9372H63.4375C63.7276 10.9372 64.0058 11.0525 64.2109 11.2576C64.416 11.4627 64.5312 11.7409 64.5312 12.031C64.5312 12.321 64.416 12.5992 64.2109 12.8044C64.0058 13.0095 63.7276 13.1247 63.4375 13.1247H62.3437V10.9372ZM48.125 8.46534L60.1562 4.75753V19.3044L48.125 15.5966V8.46534ZM40.4687 8.74972H45.9375V15.3122H40.4687V8.74972ZM43.5859 17.4997L42.7984 22.9685H41.5625V17.4997H43.5859ZM37.1875 13.1247V10.9372H38.2812V13.1247H37.1875ZM9.84375 7.65597H29.5312V22.9685H9.84375V7.65597ZM44.8437 63.4372V65.6247H25.1562V63.4372H44.8437ZM32.8125 61.2497V57.9685H37.1875V61.2497H32.8125ZM65.625 54.6872C65.625 54.9773 65.5098 55.2555 65.3046 55.4606C65.0995 55.6657 64.8213 55.781 64.5312 55.781H5.46875C5.17867 55.781 4.90047 55.6657 4.69535 55.4606C4.49023 55.2555 4.375 54.9773 4.375 54.6872V53.5935H65.625V54.6872ZM65.625 51.406H4.375V19.6872C4.375 19.3971 4.49023 19.1189 4.69535 18.9138C4.90047 18.7087 5.17867 18.5935 5.46875 18.5935H7.65625V24.0622C7.65625 24.3523 7.77148 24.6305 7.9766 24.8356C8.18172 25.0407 8.45992 25.156 8.75 25.156H30.625C30.9151 25.156 31.1933 25.0407 31.3984 24.8356C31.6035 24.6305 31.7187 24.3523 31.7187 24.0622V18.5935H39.375V24.0622C39.375 24.3523 39.4902 24.6305 39.6953 24.8356C39.9005 25.0407 40.1787 25.156 40.4687 25.156H43.75C44.0135 25.1559 44.2682 25.0607 44.4671 24.8879C44.6661 24.7151 44.7959 24.4763 44.8328 24.2153L45.7953 17.4997H46.8672L60.9328 21.831C61.0355 21.8623 61.1426 21.8771 61.25 21.8747C61.5388 21.8705 61.8145 21.7539 62.0187 21.5497C62.2229 21.3455 62.3395 21.0697 62.3437 20.781V18.5935H64.5312C64.8213 18.5935 65.0995 18.7087 65.3046 18.9138C65.5098 19.1189 65.625 19.3971 65.625 19.6872V51.406Z" fill="#5AB5BA"/>
<path d="M7.65625 49.2188H36.0938C36.3838 49.2188 36.662 49.1035 36.8671 48.8984C37.0723 48.6933 37.1875 48.4151 37.1875 48.125V30.625C37.1875 30.3349 37.0723 30.0567 36.8671 29.8516C36.662 29.6465 36.3838 29.5312 36.0938 29.5312H7.65625C7.36617 29.5312 7.08797 29.6465 6.88285 29.8516C6.67773 30.0567 6.5625 30.3349 6.5625 30.625V48.125C6.5625 48.4151 6.67773 48.6933 6.88285 48.8984C7.08797 49.1035 7.36617 49.2188 7.65625 49.2188ZM8.75 47.0312V32.5817L21.3019 40.3069C21.4742 40.4129 21.6726 40.4691 21.875 40.4691C22.0774 40.4691 22.2758 40.4129 22.4481 40.3069L35 32.5817V47.0312H8.75ZM11.5205 31.7188H32.2295L21.875 38.0909L11.5205 31.7188Z" fill="#5AB5BA"/>
<path d="M40.4688 42.6562H42.6563V45.9375C42.6563 46.2276 42.7715 46.5058 42.9766 46.7109C43.1817 46.916 43.4599 47.0312 43.75 47.0312H62.3438C62.6338 47.0312 62.912 46.916 63.1172 46.7109C63.3223 46.5058 63.4375 46.2276 63.4375 45.9375V32.8125C63.4375 32.5224 63.3223 32.2442 63.1172 32.0391C62.912 31.834 62.6338 31.7187 62.3438 31.7187H61.25V28.4375C61.25 28.1474 61.1348 27.8692 60.9297 27.6641C60.7245 27.459 60.4463 27.3438 60.1563 27.3438H40.4688C40.1787 27.3438 39.9005 27.459 39.6954 27.6641C39.4902 27.8692 39.375 28.1474 39.375 28.4375V41.5625C39.375 41.8526 39.4902 42.1308 39.6954 42.3359C39.9005 42.541 40.1787 42.6562 40.4688 42.6562ZM61.25 44.8437H44.8438V33.9062H61.25V44.8437ZM41.5625 29.5312H59.0625V31.7187H43.75C43.4599 31.7187 43.1817 31.834 42.9766 32.0391C42.7715 32.2442 42.6563 32.5224 42.6563 32.8125V40.4687H41.5625V29.5312Z" fill="#5AB5BA"/>
<path d="M47.0312 36.0938H49.2188V38.2812H47.0312V36.0938Z" fill="#5AB5BA"/>
<path d="M51.4062 36.0938H59.0625V38.2812H51.4062V36.0938Z" fill="#5AB5BA"/>
<path d="M47.0312 40.4688H51.4062V42.6563H47.0312V40.4688Z" fill="#5AB5BA"/>
<path d="M53.5938 40.4688H59.0625V42.6563H53.5938V40.4688Z" fill="#5AB5BA"/>
<path d="M16.9247 19.5245C17.0833 19.6226 17.2643 19.6785 17.4505 19.6869C17.6368 19.6953 17.8221 19.656 17.9889 19.5726L24.5514 16.2914C24.7334 16.2007 24.8865 16.061 24.9936 15.8881C25.1006 15.7152 25.1573 15.5158 25.1573 15.3125C25.1573 15.1091 25.1006 14.9098 24.9936 14.7368C24.8865 14.5639 24.7334 14.4243 24.5514 14.3336L17.9889 11.0523C17.8221 10.969 17.6368 10.9296 17.4505 10.9381C17.2642 10.9465 17.0832 11.0024 16.9247 11.1005C16.7661 11.1986 16.6352 11.3356 16.5445 11.4985C16.4537 11.6614 16.4062 11.8448 16.4063 12.0312V18.5937C16.4062 18.7802 16.4537 18.9636 16.5445 19.1265C16.6352 19.2894 16.7661 19.4264 16.9247 19.5245ZM18.5938 13.8009L21.6169 15.3125L18.5938 16.824V13.8009Z" fill="#5AB5BA"/>
</svg>
