<svg width="22" height="22" viewBox="0 0 22 22" fill="none" xmlns="http://www.w3.org/2000/svg">
<path d="M21.371 3.00757C21.0473 2.68337 20.5222 2.68281 20.1986 3.00619L10.2516 12.9269L6.66275 9.02908C6.35265 8.69246 5.82834 8.67064 5.49117 8.9807C5.15425 9.2908 5.13268 9.81537 5.44278 10.1523L9.61617 14.6847C9.76901 14.8508 9.9829 14.9473 10.2084 14.9519C10.2145 14.9522 10.2204 14.9522 10.2262 14.9522C10.4453 14.9522 10.6562 14.8651 10.8115 14.7104L21.3693 4.18023C21.6938 3.85689 21.6943 3.33177 21.371 3.00757Z" fill="#5AB5BA"/>
<path d="M21.1708 10.1708C20.7129 10.1708 20.3417 10.542 20.3417 11C20.3417 16.1512 16.1512 20.3417 11 20.3417C5.84908 20.3417 1.65829 16.1512 1.65829 11C1.65829 5.84908 5.84908 1.65829 11 1.65829C11.458 1.65829 11.8292 1.28713 11.8292 0.829168C11.8292 0.371164 11.458 0 11 0C4.93453 0 0 4.93453 0 11C0 17.0652 4.93453 22 11 22C17.0652 22 22 17.0652 22 11C22 10.542 21.6288 10.1708 21.1708 10.1708Z" fill="#5AB5BA"/>
</svg>
