<svg width="28" height="28" viewBox="0 0 28 28" fill="none" xmlns="http://www.w3.org/2000/svg">
<path d="M25.3887 11.5987L5.44818 0.44135C4.60725 -0.102407 3.54123 -0.147141 2.65639 0.326342C1.76001 0.806115 1.20312 1.73564 1.20312 2.75238V25.2476C1.20312 26.2644 1.76001 27.1939 2.65633 27.6736C3.53664 28.1448 4.60282 28.1051 5.44823 27.5587L25.3888 16.4013C26.2704 15.908 26.7968 15.0103 26.7968 14.0001C26.7968 12.9898 26.2704 12.092 25.3887 11.5987ZM18.6854 9.95001L15.9325 12.7029L6.18558 2.95593L18.6854 9.95001ZM3.03756 25.5567V2.44324L14.6355 14L3.03756 25.5567ZM6.18558 25.0441L15.9326 15.2971L18.6855 18.05L6.18558 25.0441ZM24.4931 14.8005L20.3489 17.1193L17.2296 14.0001L20.3489 10.8808L24.493 13.1996C24.9166 13.4367 24.9623 13.8383 24.9623 14.0001C24.9623 14.1618 24.9167 14.5634 24.4931 14.8005Z" fill="black"/>
</svg>
