<svg width="22" height="22" viewBox="0 0 22 22" fill="none" xmlns="http://www.w3.org/2000/svg">
<path d="M11 0C4.92488 0 0 4.92488 0 11C0 17.0751 4.92488 22 11 22C17.0751 22 22 17.0751 22 11C22 4.92488 17.0751 0 11 0ZM7.9596 16.7008H5.29914V9.09976H7.9596V16.7008ZM6.62937 7.9596C6.36627 7.9596 6.10909 7.88158 5.89033 7.73542C5.67157 7.58925 5.50107 7.38149 5.40039 7.13843C5.29971 6.89536 5.27337 6.62789 5.32469 6.36985C5.37602 6.11181 5.50271 5.87479 5.68875 5.68875C5.87479 5.50271 6.11181 5.37602 6.36985 5.32469C6.62789 5.27337 6.89536 5.29971 7.13843 5.40039C7.38149 5.50107 7.58925 5.67157 7.73542 5.89033C7.88158 6.10909 7.9596 6.36627 7.9596 6.62937C7.9596 6.98216 7.81946 7.3205 7.57 7.56997C7.32055 7.81943 6.98221 7.95959 6.62942 7.9596H6.62937ZM16.7007 16.7008H14.4205V12.9972C14.4205 12.1139 14.3225 10.9777 13.1118 10.9777C11.8826 10.9777 11.6946 11.9399 11.6946 12.9332V16.7008H9.4798V9.09976H11.599V10.1256H11.6317C11.9472 9.52666 12.7184 9.09976 13.8675 9.09976C16.2584 9.09976 16.7008 10.4725 16.7008 12.5236L16.7007 16.7008Z" fill="#E5E5E5"/>
</svg>
