<svg width="28" height="28" viewBox="0 0 28 28" fill="none" xmlns="http://www.w3.org/2000/svg">
<path d="M22.2578 0H5.74219C2.57595 0 0 2.57595 0 5.74219V22.2578C0 25.4241 2.57595 28 5.74219 28H22.2578C25.4241 28 28 25.4241 28 22.2578V5.74219C28 2.57595 25.4241 0 22.2578 0ZM26.3594 22.2578C26.3594 24.5194 24.5194 26.3594 22.2578 26.3594H5.74219C3.48059 26.3594 1.64062 24.5194 1.64062 22.2578V5.74219C1.64062 3.48059 3.48059 1.64062 5.74219 1.64062H22.2578C24.5194 1.64062 26.3594 3.48059 26.3594 5.74219V22.2578Z" fill="white"/>
<path d="M16.715 6.7556C16.6205 6.40286 16.3943 6.10799 16.078 5.92544C15.4253 5.54854 14.5875 5.77292 14.2104 6.42589L14 6.79033L13.7896 6.42583C13.4126 5.77303 12.5748 5.54854 11.922 5.92539H11.9219C11.2691 6.30235 11.0446 7.14011 11.4215 7.79302L12.4213 9.52465L8.73239 15.9141H6.04297C5.2891 15.9141 4.67578 16.5274 4.67578 17.2812C4.67578 18.0351 5.2891 18.6484 6.04297 18.6484H16.4259L14.8472 15.9141H11.8898L16.5784 7.79308C16.761 7.47682 16.8096 7.10833 16.715 6.7556Z" fill="white"/>
<path d="M21.9573 15.914H19.2679L16.2105 10.6184L14.6318 13.3528L19.3789 21.575C19.5615 21.8913 19.8563 22.1175 20.2091 22.2121C20.3269 22.2436 20.4464 22.2593 20.5652 22.2593C20.8021 22.2593 21.036 22.1971 21.2467 22.0755C21.8995 21.6985 22.124 20.8607 21.747 20.2079L20.8466 18.6484H21.9573C22.7112 18.6484 23.3245 18.0351 23.3245 17.2812C23.3245 16.5274 22.7112 15.914 21.9573 15.914Z" fill="white"/>
<path d="M6.52209 19.7422L6.25319 20.2079C5.87629 20.8608 6.10078 21.6986 6.75364 22.0755C6.9684 22.1995 7.20311 22.2584 7.43493 22.2584C7.90776 22.2584 8.36829 22.0131 8.62127 21.575L9.67947 19.7422H6.52209Z" fill="white"/>
</svg>
