<svg width="38" height="60" viewBox="0 0 38 60" fill="none" xmlns="http://www.w3.org/2000/svg">
<path d="M5.64 60H31.96C33.4558 60 34.8904 59.4074 35.9481 58.3525C37.0058 57.2976 37.6 55.8668 37.6 54.375V5.625C37.6 4.13316 37.0058 2.70242 35.9481 1.64752C34.8904 0.592632 33.4558 0 31.96 0L5.64 0C4.14418 0 2.70962 0.592632 1.65192 1.64752C0.594213 2.70242 0 4.13316 0 5.625V54.375C0 55.8668 0.594213 57.2976 1.65192 58.3525C2.70962 59.4074 4.14418 60 5.64 60ZM13.2352 3.75H24.3648V4.6875H13.2352V3.75ZM3.76 5.625C3.76 5.12772 3.95807 4.65081 4.31064 4.29917C4.66321 3.94754 5.14139 3.75 5.64 3.75H9.4752V6.5625C9.4752 7.05978 9.67327 7.53669 10.0258 7.88832C10.3784 8.23996 10.8566 8.4375 11.3552 8.4375H26.2448C26.7434 8.4375 27.2216 8.23996 27.5742 7.88832C27.9267 7.53669 28.1248 7.05978 28.1248 6.5625V3.75H31.96C32.4586 3.75 32.9368 3.94754 33.2894 4.29917C33.6419 4.65081 33.84 5.12772 33.84 5.625V54.375C33.84 54.8723 33.6419 55.3492 33.2894 55.7008C32.9368 56.0525 32.4586 56.25 31.96 56.25H5.64C5.14139 56.25 4.66321 56.0525 4.31064 55.7008C3.95807 55.3492 3.76 54.8723 3.76 54.375V5.625Z" fill="#5AB5BA"/>
</svg>
