<svg width="22" height="22" viewBox="0 0 22 22" fill="none" xmlns="http://www.w3.org/2000/svg">
<path d="M10.9996 13.2021C12.2132 13.2021 13.2026 12.2145 13.2026 11C13.2026 10.5206 13.0457 10.0779 12.7861 9.71637C12.386 9.16162 11.7355 8.79785 11.0009 8.79785C10.2658 8.79785 9.61583 9.16118 9.21484 9.71592C8.95431 10.0775 8.79878 10.5201 8.79834 10.9995C8.79701 12.214 9.78553 13.2021 10.9996 13.2021Z" fill="#E5E5E5"/>
<path d="M15.8085 8.30591V6.46002V6.1853L15.5325 6.18619L13.6875 6.19195L13.6946 8.31299L15.8085 8.30591Z" fill="#E5E5E5"/>
<path d="M11 0C4.93462 0 0 4.93462 0 11C0 17.0649 4.93462 22 11 22C17.0649 22 22 17.0649 22 11C22 4.93462 17.0658 0 11 0ZM17.2559 9.71639V14.8384C17.2559 16.1726 16.1712 17.2568 14.838 17.2568H7.16201C5.82832 17.2568 4.7441 16.1726 4.7441 14.8384V9.71639V7.16245C4.7441 5.82877 5.82832 4.74454 7.16201 4.74454H14.8375C16.1712 4.74454 17.2559 5.82877 17.2559 7.16245V9.71639Z" fill="#E5E5E5"/>
<path d="M14.4218 11.0002C14.4218 12.8864 12.8869 14.4221 10.9998 14.4221C9.11273 14.4221 7.57833 12.8864 7.57833 11.0002C7.57833 10.5464 7.66872 10.1127 7.83 9.71655H5.9624V14.8386C5.9624 15.5006 6.49986 16.0367 7.16139 16.0367H14.8369C15.4976 16.0367 16.0359 15.5006 16.0359 14.8386V9.71655H14.1674C14.33 10.1127 14.4218 10.5464 14.4218 11.0002Z" fill="#E5E5E5"/>
</svg>
